<?xml version="1.0" standalone="no"?>
<!DOCTYPE svg PUBLIC "-//W3C//DTD SVG 20010904//EN"
 "http://www.w3.org/TR/2001/REC-SVG-20010904/DTD/svg10.dtd">
<svg version="1.0" xmlns="http://www.w3.org/2000/svg"
 width="512.000000pt" height="512.000000pt" viewBox="0 0 512.000000 512.000000"
 preserveAspectRatio="xMidYMid meet">
<metadata>
Created by potrace 1.16, written by Peter Selinger 2001-2019
</metadata>
<g transform="translate(0.000000,512.000000) scale(0.100000,-0.100000)"
fill="#000000" stroke="none">
<path d="M248 4636 c-88 -24 -168 -90 -216 -181 l-27 -50 0 -1540 0 -1540 27
-50 c35 -68 97 -128 166 -162 l57 -28 852 -3 c469 -1 853 -5 853 -7 0 -3 -24
-51 -52 -108 -52 -101 -53 -103 -53 -192 0 -74 4 -97 23 -132 35 -66 79 -110
140 -140 l57 -28 485 0 485 0 57 28 c61 30 105 74 140 140 19 35 23 57 22 132
0 87 -1 93 -51 195 l-51 105 851 5 852 5 57 28 c69 34 131 94 166 162 l27 50
0 1540 0 1540 -27 50 c-35 68 -97 128 -166 162 -56 28 -59 28 -283 31 l-227 4
-32 -29 c-26 -23 -33 -37 -34 -69 -1 -47 24 -91 60 -104 14 -6 108 -10 210
-10 199 0 216 -4 264 -55 l25 -27 3 -1279 2 -1279 -2350 0 -2350 0 2 1279 3
1279 25 27 c55 59 -62 55 1709 55 l1631 0 32 29 c28 25 33 36 33 76 0 40 -5
51 -33 76 l-32 29 -1643 -1 c-1290 0 -1652 -3 -1689 -13z m4660 -3155 c-3
-100 -5 -112 -28 -137 -54 -58 101 -54 -2325 -54 -2431 0 -2260 -4 -2315 55
-23 24 -25 35 -28 136 l-4 109 2352 0 2352 0 -4 -109z m-1918 -541 c39 -79 70
-153 70 -169 0 -17 -10 -42 -24 -58 l-24 -28 -447 -3 -446 -3 -29 30 c-44 44
-40 72 40 231 l70 140 360 0 360 0 70 -140z"/>
<path d="M3924 4616 c-26 -26 -34 -42 -34 -71 0 -49 53 -105 99 -105 43 0 85
23 99 55 36 78 -14 155 -99 155 -22 0 -41 -10 -65 -34z"/>
<path d="M1428 3574 c-156 -113 -298 -220 -316 -238 -112 -104 -121 -296 -20
-410 31 -36 527 -409 602 -453 26 -15 91 -17 117 -3 22 12 49 61 49 89 0 50
-31 78 -312 283 -159 115 -296 221 -304 234 -21 31 -12 84 19 111 12 11 139
104 282 208 143 103 270 197 282 208 45 41 38 128 -13 162 -13 8 -41 15 -63
15 -36 0 -67 -20 -323 -206z"/>
<path d="M2772 3767 c-15 -7 -39 -44 -68 -104 -25 -51 -150 -312 -279 -580
-255 -529 -257 -535 -209 -592 22 -27 32 -31 74 -31 31 0 55 6 68 18 12 9 145
275 297 591 216 451 275 582 275 613 0 77 -83 122 -158 85z"/>
<path d="M3304 3765 c-49 -34 -55 -122 -11 -162 12 -11 139 -105 282 -208 143
-104 270 -197 282 -208 31 -27 40 -80 19 -111 -8 -13 -145 -119 -304 -234
-281 -205 -312 -233 -312 -283 0 -28 27 -77 49 -89 26 -14 91 -12 117 3 74 43
571 417 604 455 102 115 89 304 -27 413 -21 20 -163 127 -316 238 -257 185
-282 201 -321 201 -23 0 -51 -7 -62 -15z"/>
</g>
</svg>
