<?xml version="1.0" encoding="UTF-8"?>
<svg version="1.1" xmlns="http://www.w3.org/2000/svg" width="512" height="512">
<path d="M0 0 C0.78049421 -0.00235223 1.56098842 -0.00470446 2.36513397 -0.00712797 C5.00221754 -0.01382892 7.63925196 -0.01335942 10.27634335 -0.01294994 C12.17746412 -0.01624789 14.07858419 -0.01997331 15.97970337 -0.02409142 C21.22114733 -0.0341275 26.46257985 -0.0378308 31.70403206 -0.04048073 C37.35044508 -0.04437906 42.99684898 -0.05395776 48.64325619 -0.0626936 C62.28844566 -0.08247202 75.93363589 -0.09252625 89.57883611 -0.10142139 C96.00152393 -0.10580229 102.42421092 -0.11116963 108.84689808 -0.11641026 C130.19252951 -0.13342439 151.53815974 -0.14794379 172.88379669 -0.155159 C174.26451933 -0.15563375 175.64524197 -0.15610964 177.02596461 -0.15658666 C177.71068146 -0.15682303 178.39539831 -0.15705941 179.10086416 -0.15730295 C182.56999667 -0.15850415 186.03912918 -0.1597196 189.50826168 -0.16094494 C190.54095329 -0.16130516 190.54095329 -0.16130516 191.59450736 -0.16167267 C213.91242184 -0.16956432 236.23028314 -0.1929926 258.5481744 -0.22550088 C282.14260953 -0.25980583 305.73700214 -0.27950966 329.33146518 -0.28280324 C342.19349166 -0.28496976 355.05544002 -0.29373917 367.91744328 -0.31926441 C378.8708328 -0.34095141 389.82412522 -0.34903168 400.77753378 -0.33929763 C406.36657981 -0.33474708 411.95542543 -0.33668319 417.54444408 -0.35605907 C422.6626152 -0.37364942 427.78043909 -0.3727264 432.89861368 -0.35716178 C434.7486266 -0.35477944 436.59866331 -0.35914164 438.44863982 -0.37099043 C451.50816726 -0.44944263 461.59024537 0.52757231 471.46309566 9.84125233 C476.82843898 16.05319814 479.56497221 23.21295794 479.57778549 31.34476948 C479.58224334 32.65371567 479.58670118 33.96266187 479.59129411 35.3112731 C479.59120481 36.77264151 479.59101495 38.23400992 479.59073544 39.6953783 C479.59403391 41.24105373 479.59775945 42.78672829 479.60187691 44.33240175 C479.61190719 48.59138001 479.61561537 52.85034417 479.61826622 57.10933256 C479.62216632 61.69849625 479.63174498 66.28764875 479.64047909 70.87680531 C479.66025355 81.96654492 479.67031171 93.05628546 479.67920688 104.14603829 C479.68358885 109.36768068 479.68895595 114.58932205 479.69419575 119.81096363 C479.71121028 137.16851306 479.72570399 154.52606186 479.73294449 171.88361835 C479.73485441 176.38935312 479.73677474 180.89508789 479.73873043 185.40082264 C479.73921417 186.52071187 479.73969791 187.64060111 479.74019631 188.79442638 C479.74849483 206.93190927 479.77382775 225.06932617 479.80631111 243.20678025 C479.83938572 261.826144 479.85739368 280.44547422 479.86058873 299.0648675 C479.86275363 309.51969302 479.87149925 319.97442235 479.8970499 330.42921925 C479.9187625 339.33420719 479.92680461 348.2390756 479.91708312 357.14408702 C479.91253984 361.68621173 479.91442626 366.22808984 479.93384457 370.7701807 C479.95148731 374.93299512 479.95046961 379.09538323 479.93494727 383.25820225 C479.93257286 384.75964945 479.93688613 386.26112625 479.94877592 387.76252824 C480.03342063 399.16250792 478.6103308 409.2471561 471.20918941 418.34906483 C466.13888196 423.47545975 460.46084632 426.64118237 453.44356441 428.13422108 C453.52606441 429.30984608 453.60856441 430.48547108 453.69356441 431.69672108 C453.68487866 436.59548574 452.31272384 439.17943376 449.44356441 443.13422108 C445.6775839 445.92165532 443.02167928 446.50713681 438.37549496 446.49498463 C437.15698345 446.49910862 435.93847195 446.50323261 434.68303585 446.50748158 C433.34108415 446.49686566 431.99913471 446.48596125 430.65718746 446.47479725 C429.23774897 446.47395062 427.81830916 446.47442682 426.39887142 446.47612476 C422.55206726 446.47698476 418.70554429 446.45935847 414.85880542 446.43840289 C410.83627645 446.41963673 406.81374088 446.4178857 402.79117489 446.41432667 C395.17684633 446.40500602 387.56264714 446.38039199 379.94837552 446.3502782 C371.27855162 446.3167348 362.6087215 446.30024834 353.93884885 446.28519189 C336.10701406 446.25384243 318.27529964 446.20108155 300.44356441 446.13422108 C300.44356441 449.10422108 300.44356441 452.07422108 300.44356441 455.13422108 C301.23939938 455.11327381 302.03523434 455.09232655 302.85518551 455.07074451 C306.5095133 454.9868834 310.16363774 454.93533893 313.81856441 454.88422108 C315.0702441 454.85070545 316.32192379 454.81718983 317.61153316 454.78265858 C326.73198987 454.68715641 333.35802494 456.12912957 341.19356441 460.75922108 C349.73686748 469.77715209 350.6586258 478.12170985 350.75606441 490.00922108 C350.78506832 491.18097889 350.81407223 492.3527367 350.84395504 493.56000233 C350.92372228 504.37153074 350.92372228 504.37153074 346.44356441 509.13422108 C343.37952934 511.17691113 342.77309306 511.38504508 339.32460117 511.39428329 C338.0610192 511.40488168 338.0610192 511.40488168 336.77191031 511.41569418 C335.38355619 511.41207155 335.38355619 511.41207155 333.9671545 511.40837574 C332.98398294 511.41361242 332.00081137 511.4188491 330.98784673 511.42424446 C327.67828622 511.43930122 324.36887954 511.43995086 321.05928707 511.44061756 C318.69260044 511.44823519 316.32591629 511.456662 313.95923519 511.46584034 C307.51919894 511.48783049 301.07919707 511.49661174 294.63912916 511.50166678 C290.61866832 511.50492258 286.59821707 511.51144432 282.57776165 511.51866817 C271.44808987 511.5382346 260.318427 511.55463876 249.18873692 511.55754471 C248.12024021 511.55782606 248.12024021 511.55782606 247.03015771 511.5581131 C245.58606744 511.55847935 244.14197717 511.55884305 242.6978869 511.55920421 C241.98103079 511.55938702 241.26417468 511.55956984 240.52559566 511.55975819 C239.44900051 511.56002901 239.44900051 511.56002901 238.35065596 511.5603053 C226.71762709 511.56384789 215.08478323 511.59087521 203.45181854 511.62825608 C191.51084845 511.66631992 179.5699702 511.68570204 167.62893808 511.68600422 C160.923445 511.6865892 154.21817265 511.69510712 147.51273632 511.72400188 C141.20734479 511.75009391 134.90239123 511.75243707 128.59697056 511.73634624 C126.28020114 511.73452473 123.96340704 511.74128531 121.64669132 511.75716496 C118.48858386 511.77749538 115.33202761 511.76714958 112.17394161 511.74895191 C110.79227965 511.76875186 110.79227965 511.76875186 109.38270533 511.78895181 C104.8847778 511.72957772 103.04704349 511.61312989 99.41622639 508.73178673 C95.05392331 502.98758484 95.10642307 497.93993496 95.13106441 490.94672108 C95.11495113 490.05146717 95.09883785 489.15621326 95.08223629 488.23383045 C95.07585583 479.39689053 96.75549277 471.12242339 102.44356441 464.13422108 C110.10063521 456.65522169 117.56172927 454.67168233 128.18770504 454.78265858 C130.07779293 454.83293201 130.07779293 454.83293201 132.00606441 454.88422108 C133.3009277 454.90226795 134.59579098 454.92031483 135.92989254 454.93890858 C139.10143925 454.98572107 142.27260138 455.05745264 145.44356441 455.13422108 C145.44356441 446.55422108 145.44356441 437.97422108 145.44356441 429.13422108 C142.12032101 429.16564198 142.12032101 429.16564198 138.72994137 429.19769764 C131.40584548 429.26400868 124.08173626 429.30817281 116.75741959 429.34146976 C112.31710893 429.36233497 107.87710611 429.39063285 103.43697262 429.43597889 C99.15109073 429.47947514 94.86550473 429.50336621 90.57941914 429.51373005 C88.94513637 429.52111468 87.31086961 429.53553533 85.67671299 429.5571413 C83.38550748 429.58622667 81.09552087 429.59017511 78.80416012 429.58832264 C77.50066113 429.59720509 76.19716213 429.60608753 74.85416317 429.61523914 C70.85936157 429.0518273 69.20416735 428.03748282 66.44356441 425.13422108 C65.81856441 421.69672108 65.81856441 421.69672108 66.44356441 418.13422108 C69.00487793 414.88211037 70.49157652 413.3195182 74.60443497 412.51898193 C75.80184405 412.5235909 76.99925314 412.52819986 78.23294735 412.53294849 C78.90283851 412.52867637 79.57272967 412.52440425 80.26292056 412.52000266 C82.50066143 412.51178686 84.73651479 412.53922991 86.97408199 412.56659412 C88.58070996 412.56800492 90.18734115 412.567212 91.79396725 412.5643816 C96.15125304 412.56294725 100.50785035 412.59233965 104.86497617 412.62725139 C109.42000127 412.65851197 113.97504222 412.66144539 118.53015804 412.66737843 C127.15393176 412.68291776 135.77738847 412.7239474 144.40102261 412.77412587 C154.21952846 412.83001657 164.03804946 412.85750515 173.85667479 412.88260305 C194.05248158 412.9348632 214.24800303 413.02280723 234.44356441 413.13422108 C234.42261715 412.46890369 234.40166988 411.80358631 234.38008785 411.1181078 C234.29655832 408.08196806 234.24478838 405.04607065 234.19356441 402.00922108 C234.14329098 400.43914295 234.14329098 400.43914295 234.09200191 398.83734608 C234.01263322 392.56721952 234.25204424 388.90767839 238.44356441 384.13422108 C238.95918941 383.53609608 239.47481441 382.93797108 240.00606441 382.32172108 C244.19446953 378.86173425 250.38438505 380.07470132 255.44356441 380.13422108 C255.44356441 376.17422108 255.44356441 372.21422108 255.44356441 368.13422108 C165.35356441 368.13422108 75.26356441 368.13422108 -17.55643559 368.13422108 C-17.97516052 388.35722035 -17.97516052 388.35722035 -12.55643559 408.13422108 C-10.75716519 409.40911374 -10.75716519 409.40911374 -8.55643559 410.13422108 C-7.85067387 410.47606434 -7.14491215 410.8179076 -6.41776371 411.17010975 C-2.78121806 412.39542705 0.62213269 412.39414168 4.41231441 412.37250233 C5.96831278 412.38791552 7.52430255 412.40421867 9.08028316 412.42133045 C11.51618703 412.43779923 13.95145692 412.44669821 16.38741207 412.439641 C18.75059912 412.43701789 21.11188223 412.4651478 23.47481441 412.49750233 C24.19890499 412.48729557 24.92299557 412.47708881 25.66902828 412.46657276 C29.58559969 412.54206217 31.29936645 413.01958845 34.40254879 415.486516 C36.44356441 418.13422108 36.44356441 418.13422108 37.06856441 421.13422108 C36.21528141 425.22997952 34.70454517 426.54715663 31.44356441 429.13422108 C28.56573152 429.61099045 26.2970981 429.79229795 23.43184566 429.72797108 C22.66357952 429.72801136 21.89531338 429.72805164 21.10376644 429.72809315 C19.48070237 429.72274556 17.85763829 429.70519496 16.23482418 429.67621326 C13.78078916 429.63463993 11.32953036 429.63512624 8.87520504 429.64203358 C-3.60166717 429.59105149 -13.38652231 428.42975468 -23.11893559 419.88422108 C-28.97464995 413.27777411 -32.80266826 406.58940212 -32.81370449 397.62793159 C-32.81721057 396.98526471 -32.82071664 396.34259783 -32.82432896 395.68045619 C-32.83364236 393.52419586 -32.82871989 391.36820565 -32.82386112 389.21193409 C-32.82759743 387.65144416 -32.83219888 386.09095611 -32.83759177 384.53047103 C-32.84983986 380.23985601 -32.84955917 375.94931885 -32.84720302 371.65869033 C-32.8467953 367.03208293 -32.85782976 362.40550065 -32.86731815 357.77890491 C-32.88393967 348.7129927 -32.88942824 339.64710649 -32.89054291 330.58118031 C-32.89149296 323.21152961 -32.89560108 315.84188749 -32.90194416 308.47223949 C-32.91956067 287.57950924 -32.92878253 266.68679955 -32.92728321 245.79406182 C-32.9272033 244.66744474 -32.92712339 243.54082767 -32.92704105 242.38007069 C-32.92695929 241.2520783 -32.92687753 240.12408591 -32.92679329 238.96191194 C-32.92598055 220.68484648 -32.94511419 202.40786347 -32.97331779 184.13082186 C-33.00204619 165.36562348 -33.01585807 146.60046529 -33.01413023 127.83524436 C-33.01346626 117.2994442 -33.01896173 106.76373045 -33.04048634 96.2279501 C-33.05869766 87.25636771 -33.06304594 78.28491086 -33.04946749 69.31331799 C-33.04293727 64.73687931 -33.04282254 60.16068148 -33.06017399 55.58426571 C-33.07590764 51.39135299 -33.07303818 47.19887205 -33.05560572 43.00596984 C-33.05253644 41.49249051 -33.05616558 39.97897894 -33.06732588 38.46553764 C-33.15102799 26.30531829 -31.38525515 17.16301199 -22.84940434 8.11468983 C-16.13197825 2.31275622 -8.71505741 -0.01770079 0 0 Z M-10.93143559 20.44672108 C-11.90209965 21.3071703 -11.90209965 21.3071703 -12.89237309 22.18500233 C-26.7554717 38.42370234 -16.55643559 64.78285387 -16.55643559 86.13422108 C141.84356441 86.13422108 300.24356441 86.13422108 463.44356441 86.13422108 C468.21597896 55.43335945 468.21597896 55.43335945 458.90059566 21.30609608 C458.35790035 20.83687733 457.81520504 20.36765858 457.25606441 19.88422108 C456.72625973 19.40468983 456.19645504 18.92515858 455.65059566 18.43109608 C450.13597471 15.19064624 443.80359974 14.84002442 437.54741573 14.8825388 C436.41270789 14.87817847 436.41270789 14.87817847 435.25507665 14.87373006 C432.7297703 14.86645308 430.20470868 14.87336261 427.67940426 14.88025379 C425.84678874 14.87794845 424.01417414 14.87477144 422.18156147 14.8707993 C417.15275722 14.86245276 412.1240289 14.86657597 407.09522438 14.87277174 C401.66911652 14.87729577 396.24302173 14.8703127 390.81691647 14.8648119 C380.18996145 14.85591575 369.56303467 14.8578409 358.93607855 14.86363718 C350.29979788 14.86815278 341.66352513 14.86876701 333.02724361 14.86658955 C331.79837693 14.86628308 330.56951024 14.86597661 329.30340517 14.86566086 C326.80703528 14.86502141 324.31066541 14.86437299 321.81429553 14.86371568 C299.06986501 14.85817436 276.32544927 14.86392225 253.58102116 14.87440087 C232.82230337 14.88389194 212.06361012 14.88304267 191.30489254 14.87347889 C167.97710508 14.8627774 144.64933135 14.85856106 121.32154179 14.86470342 C118.83432293 14.86534052 116.34710407 14.86596926 113.85988522 14.86658955 C112.63610586 14.8668981 111.4123265 14.86720665 110.15146291 14.86752455 C101.52492943 14.86925185 92.89840465 14.86633562 84.27187252 14.86163044 C73.75993143 14.85602297 63.24802022 14.85753527 52.73608255 14.86819193 C47.37211335 14.87345041 42.00819396 14.87550233 36.64422512 14.86889362 C31.73430202 14.86293578 26.82447494 14.86620663 21.91456056 14.87684873 C20.13808864 14.87908344 18.36160861 14.87794487 16.5851419 14.87309715 C14.16988378 14.86701168 11.75495414 14.87325779 9.3397131 14.8825388 C8.30617337 14.8755153 8.30617337 14.8755153 7.25175405 14.86834991 C0.5702266 14.91963196 -5.86626235 15.78469429 -10.93143559 20.44672108 Z M-17.55643559 102.13422108 C-17.55643559 184.63422108 -17.55643559 267.13422108 -17.55643559 352.13422108 C65.60356441 352.13422108 148.76356441 352.13422108 234.44356441 352.13422108 C234.77356441 337.94422108 235.10356441 323.75422108 235.44356441 309.13422108 C239.02659906 301.96815178 239.02659906 301.96815178 242.44356441 300.13422108 C246.75259596 299.16104608 251.05521531 298.70470646 255.44356441 298.13422108 C255.44356441 293.18422108 255.44356441 288.23422108 255.44356441 283.13422108 C252.22090816 282.74359608 248.99825191 282.35297108 245.77559566 281.96234608 C241.98667321 281.02066781 240.17079201 279.90504557 237.44356441 277.13422108 C234.78884249 272.35653433 235.12026046 267.36448935 235.10762691 262.04828358 C235.09764172 260.58556522 235.09764172 260.58556522 235.0874548 259.093297 C235.07734739 257.03404083 235.07263718 254.97475203 235.07295895 252.91547108 C235.06858903 249.77689711 235.03225766 246.63973367 234.99434566 243.50140858 C234.98847635 241.49620503 234.98450772 239.49099483 234.98262691 237.48578358 C234.96825588 236.55327778 234.95388485 235.62077198 234.93907833 234.66000843 C234.98091101 228.64835755 235.66142761 224.90846918 239.44356441 220.13422108 C245.25610962 216.90745159 250.25437876 216.70915308 256.81343746 216.76190662 C257.83215939 216.75825596 258.85088131 216.75460529 259.90047359 216.750844 C263.25224876 216.74276816 266.60353609 216.75632148 269.95528316 216.77093983 C272.28982194 216.77145867 274.62436115 216.77094004 276.9588995 216.76942921 C281.84358424 216.76951879 286.72810346 216.77992227 291.61275387 216.79803944 C297.87751429 216.82076369 304.14203378 216.82126234 310.40682411 216.81452179 C315.22374271 216.81118324 320.04060623 216.81780916 324.85751438 216.82765102 C327.16801637 216.83150243 329.47852447 216.83265149 331.78902912 216.83106518 C335.0134303 216.83069493 338.23752044 216.84330237 341.46187496 216.85956287 C342.41832409 216.85708546 343.37477322 216.85460804 344.36020565 216.85205555 C345.23907436 216.85914036 346.11794308 216.86622517 347.02344418 216.87352467 C348.16573498 216.87660397 348.16573498 216.87660397 349.33110237 216.87974548 C351.76527796 217.17297597 353.36598448 217.84468377 355.44356441 219.13422108 C356.96848439 222.18406103 356.6791899 224.77655798 356.44356441 228.13422108 C354.91227666 230.21618912 354.02054811 231.02197095 351.46583176 231.51898193 C350.3306437 231.52589538 350.3306437 231.52589538 349.17252254 231.53294849 C348.30174068 231.54548664 347.43095882 231.55802479 346.53378963 231.57094288 C345.10527927 231.56879025 345.10527927 231.56879025 343.64791012 231.56659412 C342.64285427 231.57678577 341.63779842 231.58697742 340.60228634 231.59747791 C337.27458352 231.62771318 333.94716805 231.63689006 330.61934566 231.64593983 C328.31433809 231.66277868 326.00933974 231.68092783 323.70435238 231.70033741 C317.63315877 231.74792959 311.56200255 231.77767939 305.49068356 231.80377674 C299.29716764 231.83353574 293.10378072 231.88008204 286.91036129 231.9252367 C274.7548148 232.01137484 262.59928204 232.07712236 250.44356441 232.13422108 C250.44356441 243.68422108 250.44356441 255.23422108 250.44356441 267.13422108 C312.15356441 267.13422108 373.86356441 267.13422108 437.44356441 267.13422108 C437.44356441 255.58422108 437.44356441 244.03422108 437.44356441 232.13422108 C434.2299316 232.09683826 431.01629879 232.05945545 427.70528316 232.02093983 C424.59754734 231.97474674 421.48993303 231.92350498 418.38228512 231.87176991 C416.22025067 231.83848785 414.05812864 231.81046622 411.89595699 231.78778553 C408.79035224 231.7543 405.68555244 231.70198708 402.58028316 231.64593983 C401.61144695 231.6395499 400.64261074 231.63315998 399.64441586 231.62657642 C398.29335499 231.59688519 398.29335499 231.59688519 396.91499996 231.56659412 C395.72586246 231.54993954 395.72586246 231.54993954 394.51270199 231.53294849 C391.90186443 231.02983428 391.00794103 230.26167733 389.44356441 228.13422108 C388.78917348 222.02657235 388.78917348 222.02657235 390.81856441 219.25922108 C393.66582776 217.28803876 395.44953227 217.00197671 398.87398434 216.97308826 C399.79221478 216.96348072 400.71044521 216.95387318 401.65650082 216.94397449 C402.65228649 216.93972462 403.64807217 216.93547474 404.67403316 216.93109608 C406.20970692 216.92254597 406.20970692 216.92254597 407.77640438 216.91382313 C409.94775513 216.90436321 412.1191203 216.89783522 414.29048824 216.8939867 C417.60023567 216.8843112 420.90935425 216.85330924 424.21895504 216.82172108 C426.3289774 216.81518803 428.43900419 216.80993875 430.54903316 216.80609608 C432.02752995 216.78757587 432.02752995 216.78757587 433.53589535 216.76868153 C439.27096297 216.78710943 443.48314493 217.13689816 448.44356441 220.13422108 C453.25375599 225.17886553 453.02938211 230.19755351 452.97481441 236.79047108 C452.97864132 237.81096546 452.98246822 238.83145985 452.98641109 239.8828783 C452.98912587 242.03454039 452.98179525 244.18623573 452.96504879 246.33783436 C452.94363377 249.62357925 452.96486612 252.90713761 452.99043941 256.19281483 C452.98779606 258.28787172 452.98267093 260.38292725 452.97481441 262.47797108 C452.98291134 263.45624866 452.99100826 264.43452625 452.99935055 265.44244862 C452.91902864 271.31056695 452.34400349 274.66281196 448.44356441 279.13422108 C443.6308984 282.37997258 439.09780604 282.70586944 433.44356441 283.13422108 C433.44356441 288.08422108 433.44356441 293.03422108 433.44356441 298.13422108 C435.32043941 298.38172108 437.19731441 298.62922108 439.13106441 298.88422108 C443.92596061 299.68619429 447.1175309 300.36471642 450.44356441 304.13422108 C452.17764306 307.06105453 452.70401052 309.24009532 452.76241207 312.62738514 C452.78228176 313.5079961 452.80215145 314.38860706 452.82262325 315.29590321 C452.83417446 316.23770435 452.84572567 317.1795055 452.85762691 318.14984608 C452.88667614 319.60629536 452.88667614 319.60629536 452.91631222 321.09216785 C452.97602951 324.18942993 453.02246221 327.28672933 453.06856441 330.38422108 C453.1067514 332.48579967 453.14580355 334.58736273 453.18575191 336.68890858 C453.28172472 341.83721975 453.36578501 346.9856042 453.44356441 352.13422108 C456.74356441 352.13422108 460.04356441 352.13422108 463.44356441 352.13422108 C463.44356441 269.63422108 463.44356441 187.13422108 463.44356441 102.13422108 C304.71356441 102.13422108 145.98356441 102.13422108 -17.55643559 102.13422108 Z M270.44356441 283.13422108 C270.44356441 288.08422108 270.44356441 293.03422108 270.44356441 298.13422108 C318.95356441 298.13422108 367.46356441 298.13422108 417.44356441 298.13422108 C417.44356441 293.18422108 417.44356441 288.23422108 417.44356441 283.13422108 C368.93356441 283.13422108 320.42356441 283.13422108 270.44356441 283.13422108 Z M250.44356441 314.13422108 C250.44356441 325.68422108 250.44356441 337.23422108 250.44356441 349.13422108 C312.15356441 349.13422108 373.86356441 349.13422108 437.44356441 349.13422108 C437.44356441 337.58422108 437.44356441 326.03422108 437.44356441 314.13422108 C375.73356441 314.13422108 314.02356441 314.13422108 250.44356441 314.13422108 Z M270.44356441 365.13422108 C270.44356441 370.08422108 270.44356441 375.03422108 270.44356441 380.13422108 C318.95356441 380.13422108 367.46356441 380.13422108 417.44356441 380.13422108 C417.44356441 375.18422108 417.44356441 370.23422108 417.44356441 365.13422108 C368.93356441 365.13422108 320.42356441 365.13422108 270.44356441 365.13422108 Z M433.44356441 368.13422108 C433.44356441 372.09422108 433.44356441 376.05422108 433.44356441 380.13422108 C435.15543941 380.23734608 436.86731441 380.34047108 438.63106441 380.44672108 C444.06793591 380.95620968 447.43747671 381.72196253 451.02559566 386.03656483 C453.17298513 390.72769387 453.01678329 395.34325241 453.13106441 400.44672108 C453.18230465 401.9868285 453.18230465 401.9868285 453.23458004 403.5580492 C453.31679851 406.08333071 453.38603378 408.60827648 453.44356441 411.13422108 C458.18146567 408.10811906 461.20858249 405.87684787 463.01167965 400.41254139 C463.59971066 397.31050327 463.55459638 394.33776545 463.54122066 391.18109608 C463.53872311 389.97292225 463.53622555 388.76474842 463.53365231 387.51996326 C463.5245483 385.99016834 463.5154443 384.46037342 463.50606441 382.88422108 C463.48543941 378.01672108 463.46481441 373.14922108 463.44356441 368.13422108 C453.54356441 368.13422108 443.64356441 368.13422108 433.44356441 368.13422108 Z M250.44356441 396.13422108 C250.44356441 407.35422108 250.44356441 418.57422108 250.44356441 430.13422108 C312.15356441 430.13422108 373.86356441 430.13422108 437.44356441 430.13422108 C437.44356441 418.91422108 437.44356441 407.69422108 437.44356441 396.13422108 C375.73356441 396.13422108 314.02356441 396.13422108 250.44356441 396.13422108 Z M161.44356441 429.13422108 C161.44356441 437.71422108 161.44356441 446.29422108 161.44356441 455.13422108 C202.03356441 455.13422108 242.62356441 455.13422108 284.44356441 455.13422108 C284.44356441 452.16422108 284.44356441 449.19422108 284.44356441 446.13422108 C283.26326656 446.12487537 282.08296871 446.11552967 280.86690426 446.10590076 C276.47199444 446.0659146 272.07777828 446.00013193 267.68331051 445.92670155 C265.78431287 445.89854187 263.88519912 445.87730249 261.98604488 445.86322498 C259.24992803 445.8417259 256.5151999 445.795041 253.77950191 445.74359608 C252.51352673 445.74175312 252.51352673 445.74175312 251.22197628 445.73987293 C245.83674951 445.60719883 242.72347226 444.69791968 238.44356441 441.13422108 C235.16571579 436.95213834 235.26236386 434.8658172 234.44356441 429.13422108 C210.35356441 429.13422108 186.26356441 429.13422108 161.44356441 429.13422108 Z M114.44356441 475.13422108 C110.32553043 482.25225507 110.32553043 482.25225507 111.44356441 496.13422108 C185.03356441 496.13422108 258.62356441 496.13422108 334.44356441 496.13422108 C335.90130239 480.59195905 335.90130239 480.59195905 331.44356441 474.13422108 C327.29537279 470.70572966 323.22746985 470.7068873 318.06210995 470.74654102 C317.22085943 470.74115549 316.37960892 470.73576995 315.51286596 470.73022121 C312.69542697 470.71591959 309.87845635 470.72305078 307.06099606 470.73016834 C305.04045897 470.72446593 303.0199251 470.71750218 300.99939632 470.70937061 C295.51181489 470.69140994 290.0243931 470.69261307 284.53679109 470.698313 C279.95663404 470.70140061 275.37650785 470.69531716 270.79635519 470.68927425 C259.99196464 470.6752211 249.18765316 470.67679693 238.38326168 470.68817616 C227.23431925 470.69965873 216.08561733 470.68558105 204.9367066 470.65877968 C195.36629798 470.63663374 185.79596491 470.6299828 176.22553247 470.63585609 C170.50878926 470.63922944 164.79220024 470.63678543 159.07547855 470.61960506 C153.70000905 470.6041557 148.32489627 470.60806933 142.94944096 470.62691021 C140.97657496 470.63060162 139.00368266 470.6274716 137.03084087 470.61702442 C134.33748195 470.60385063 131.64531024 470.61532977 128.95200253 470.63301563 C128.17135482 470.62341063 127.39070712 470.61380562 126.58640343 470.60390955 C121.38537992 470.67417577 118.34777531 471.68875577 114.44356441 475.13422108 Z " fill="#000000" transform="translate(32.55643558502197,0.865778923034668)"/>
<path d="M0 0 C0.98473106 -0.00445668 0.98473106 -0.00445668 1.98935568 -0.0090034 C4.19332558 -0.01768821 6.39724115 -0.01919845 8.60122681 -0.02069092 C10.17974463 -0.02531921 11.75826133 -0.03034388 13.33677673 -0.03573608 C17.62811983 -0.04886008 21.91944729 -0.05530491 26.21080732 -0.05974674 C28.89118759 -0.06267715 31.57156357 -0.06678187 34.25194168 -0.07125092 C42.63633815 -0.08492514 51.02072485 -0.09459246 59.4051317 -0.09845281 C69.08743986 -0.10293512 78.76960696 -0.12049134 88.45187223 -0.1494534 C95.93390518 -0.17105817 103.4158984 -0.18115642 110.89796221 -0.18249393 C115.36776374 -0.18354271 119.83743266 -0.18946631 124.30720139 -0.20731354 C128.51134115 -0.22377368 132.71524832 -0.2259598 136.9194088 -0.21717453 C138.46214737 -0.21640308 140.00489834 -0.22076112 141.54760551 -0.23063278 C143.65449197 -0.24332367 145.76055101 -0.23749193 147.86743164 -0.22705078 C149.04619558 -0.22851734 150.22495953 -0.2299839 151.43944359 -0.2314949 C154.92047815 0.18331404 156.78379418 1.03064083 159.56069946 3.14044189 C161.06069946 5.95294189 161.06069946 5.95294189 161.56069946 9.14044189 C159.46767621 14.68695352 159.46767621 14.68695352 156.56069946 16.14044189 C154.40338852 16.2434214 152.24282279 16.27998337 150.08306885 16.28761292 C149.41039612 16.2912896 148.7377234 16.29496629 148.04466665 16.29875439 C145.77998376 16.30980914 143.51534673 16.31363806 141.25064087 16.31744385 C139.63123935 16.32370706 138.01183928 16.33035373 136.3924408 16.33735657 C131.98541142 16.35477745 127.57839289 16.36532091 123.1713376 16.3735621 C120.41977912 16.37870908 117.66822403 16.3847849 114.91666794 16.39107323 C106.31282504 16.41012683 97.70899074 16.4243586 89.10513079 16.4326852 C79.16354138 16.44246459 69.2221742 16.46880163 59.28066313 16.50918609 C51.60249025 16.53930952 43.92438122 16.5541504 36.24615037 16.55746621 C31.65727219 16.55982068 27.06863139 16.56883258 22.47981644 16.59392738 C18.16402199 16.61714784 13.84862224 16.62146584 9.5327816 16.611166 C7.94769035 16.61066908 6.36258007 16.61703534 4.77754784 16.63072205 C2.61532071 16.64835012 0.45452413 16.64138164 -1.70770264 16.62818909 C-2.91818457 16.63057744 -4.1286665 16.63296579 -5.3758297 16.63542652 C-9.06182734 16.03985625 -10.25011931 15.12217606 -12.43930054 12.14044189 C-12.90848736 8.38694728 -12.97066435 6.10195736 -11.12680054 2.76544189 C-7.85016271 -0.38983898 -4.31350775 0.01089229 0 0 Z " fill="#000000" transform="translate(232.43930053710938,148.85955810546875)"/>
<path d="M0 0 C1.33438362 -0.00503792 1.33438362 -0.00503792 2.69572449 -0.01017761 C5.64766828 -0.01970565 8.59955544 -0.02163178 11.55151367 -0.02270508 C13.59934004 -0.02591683 15.64716618 -0.02928084 17.69499207 -0.03279114 C21.99328137 -0.03878737 26.29155056 -0.04063058 30.58984375 -0.04003906 C36.09795522 -0.03993752 41.60593756 -0.05357965 47.11401844 -0.07081127 C51.34592786 -0.08193088 55.57780609 -0.08395827 59.80972862 -0.08342934 C61.84030285 -0.0846099 63.87087788 -0.08903594 65.90143776 -0.0967617 C68.7429774 -0.10655885 71.5842371 -0.10368436 74.42578125 -0.09765625 C75.26493073 -0.10327576 76.1040802 -0.10889526 76.96865845 -0.11468506 C81.18710271 -0.09194434 84.62596601 0.03617547 88.40698242 2.14526367 C90.02385882 4.8645558 90.43591036 6.55224085 90.28198242 9.70776367 C89.13662965 12.89838926 88.14278722 14.09813047 85.40698242 16.14526367 C82.37989993 16.75055537 79.3903026 16.70190932 76.31152344 16.67871094 C75.39238159 16.68732651 74.47323975 16.69594208 73.52624512 16.70481873 C70.48750661 16.72752388 67.44968696 16.72073114 64.41088867 16.71166992 C62.29865748 16.7169037 60.18642864 16.72317928 58.07420349 16.73045349 C53.64652512 16.74086629 49.21916796 16.73628381 44.79150391 16.72167969 C39.11721938 16.70449598 33.44394781 16.72797795 27.76977634 16.76316929 C23.40741769 16.78513009 19.04530185 16.78370486 14.6829052 16.77540398 C12.59092028 16.77458364 10.49891768 16.78146277 8.40698433 16.796175 C5.48130176 16.81359499 2.55744502 16.79909903 -0.36816406 16.77636719 C-1.23222366 16.78805939 -2.09628326 16.79975159 -2.98652649 16.8117981 C-7.33938611 16.74298457 -9.07867608 16.5423487 -12.63441467 13.79722595 C-14.59301758 11.14526367 -14.59301758 11.14526367 -15.15551758 8.08276367 C-14.47480242 4.52791787 -13.39229298 3.36821767 -10.59301758 1.14526367 C-7.29525392 -0.50361816 -3.62508237 -0.00194367 0 0 Z " fill="#000000" transform="translate(129.593017578125,217.854736328125)"/>
<path d="M0 0 C4.58338085 4.45950569 6.8489628 10.19502436 7.1015625 16.55859375 C6.61334243 24.19575058 4.21452725 29.20227929 -1.4375 34.3125 C-6.66247229 38.73736052 -11.61920515 39.39316137 -18.28515625 39.25 C-24.77319251 38.65254055 -29.47893345 35.52106655 -34 31 C-38.56737803 24.91958963 -38.95678996 18.3852225 -38 11 C-36.19657457 4.36114015 -31.64035648 -0.26042299 -26 -4 C-17.11541971 -8.17468231 -7.37161842 -6.0204401 0 0 Z M-19.9375 11.4375 C-22.37881818 13.9224155 -22.37881818 13.9224155 -22 17.625 C-21.31742476 21.25073889 -21.31742476 21.25073889 -18 23 C-15.54290625 23.58350505 -15.54290625 23.58350505 -13 23 C-10.40878096 20.9901643 -10.40878096 20.9901643 -9 18 C-9.17064848 14.73800514 -9.17064848 14.73800514 -11 12 C-14.69615455 9.86444404 -16.06763206 9.54373484 -19.9375 11.4375 Z " fill="#000000" transform="translate(183,35)"/>
<path d="M0 0 C4.58338085 4.45950569 6.8489628 10.19502436 7.1015625 16.55859375 C6.61334243 24.19575058 4.21452725 29.20227929 -1.4375 34.3125 C-6.66247229 38.73736052 -11.61920515 39.39316137 -18.28515625 39.25 C-24.86457619 38.64412536 -29.3813494 35.40871194 -34 31 C-38.39180166 24.7909011 -38.71241203 18.43386465 -38 11 C-36.19343991 4.37211075 -31.6278541 -0.26871211 -26 -4 C-17.11541971 -8.17468231 -7.37161842 -6.0204401 0 0 Z M-19.9375 11.4375 C-22.37881818 13.9224155 -22.37881818 13.9224155 -22 17.625 C-21.31742476 21.25073889 -21.31742476 21.25073889 -18 23 C-15.54290625 23.58350505 -15.54290625 23.58350505 -13 23 C-10.40878096 20.9901643 -10.40878096 20.9901643 -9 18 C-9.17064848 14.73800514 -9.17064848 14.73800514 -11 12 C-14.69615455 9.86444404 -16.06763206 9.54373484 -19.9375 11.4375 Z " fill="#000000" transform="translate(71,35)"/>
<path d="M0 0 C4.58338085 4.45950569 6.8489628 10.19502436 7.1015625 16.55859375 C6.61334243 24.19575058 4.21452725 29.20227929 -1.4375 34.3125 C-6.66247229 38.73736052 -11.61920515 39.39316137 -18.28515625 39.25 C-24.86457619 38.64412536 -29.3813494 35.40871194 -34 31 C-38.39180166 24.7909011 -38.71241203 18.43386465 -38 11 C-36.19343991 4.37211075 -31.6278541 -0.26871211 -26 -4 C-17.11541971 -8.17468231 -7.37161842 -6.0204401 0 0 Z M-19.9375 11.4375 C-22.37881818 13.9224155 -22.37881818 13.9224155 -22 17.625 C-21.31742476 21.25073889 -21.31742476 21.25073889 -18 23 C-15.54290625 23.58350505 -15.54290625 23.58350505 -13 23 C-10.40878096 20.9901643 -10.40878096 20.9901643 -9 18 C-9.17064848 14.73800514 -9.17064848 14.73800514 -11 12 C-14.69615455 9.86444404 -16.06763206 9.54373484 -19.9375 11.4375 Z " fill="#000000" transform="translate(127,35)"/>
<path d="M0 0 C2.28453356 1.78837257 4.21776678 3.49215237 6.23828125 5.5390625 C6.80451706 6.09814301 7.37075287 6.65722351 7.95414734 7.23324585 C9.14436203 8.4156987 10.32824934 9.60455061 11.50610352 10.79931641 C13.30533427 12.61775776 15.1319362 14.40497725 16.96289062 16.19140625 C18.11896145 17.34718666 19.27331815 18.50468469 20.42578125 19.6640625 C20.9705159 20.19351471 21.51525055 20.72296692 22.07649231 21.26846313 C24.64580561 23.9182006 25.99462105 25.98275724 27.09838867 29.52099609 C26.91557953 35.98509113 22.49950034 39.75239206 18.12109375 44.109375 C17.20005859 45.02847656 16.27902344 45.94757813 15.33007812 46.89453125 C14.85513916 47.3632666 14.3802002 47.83200195 13.89086914 48.31494141 C12.43245972 49.75497678 10.9823294 51.20297274 9.53320312 52.65234375 C0.26510501 61.86198854 0.26510501 61.86198854 -4.4375 62.375 C-8 62 -8 62 -10.375 60.25 C-12.02009172 57.9721807 -12.83099388 56.78860101 -13 54 C-11.74616959 50.03172092 -10.04518739 47.68596677 -7.0859375 44.79296875 C-6.32539062 44.04208984 -5.56484375 43.29121094 -4.78125 42.51757812 C-3.9871875 41.74865234 -3.193125 40.97972656 -2.375 40.1875 C-1.17230469 39.00510742 -1.17230469 39.00510742 0.0546875 37.79882812 C2.02985317 35.85893327 4.01168427 33.92639916 6 32 C4.62538869 28.88495341 3.06722014 26.86567858 0.59375 24.5390625 C-0.06753906 23.90226562 -0.72882813 23.26546875 -1.41015625 22.609375 C-2.79949047 21.29015671 -4.19271006 19.97501785 -5.58984375 18.6640625 C-9.33642869 15.04163339 -12.01955665 12.3190982 -13 7 C-12.28905748 3.60327461 -11.41626407 2.34688672 -8.75 0.125 C-5.20869892 -1.32371408 -3.67573211 -1.04686278 0 0 Z " fill="#000000" transform="translate(125,128)"/>
<path d="M0 0 C2.54617692 2.20668667 2.96356829 3.8482012 3.75 7.125 C2.55595208 13.29424759 -1.63851932 16.67781194 -6 21 C-6.85851562 21.87140625 -7.71703125 22.7428125 -8.6015625 23.640625 C-10.71832749 25.77754966 -12.85042589 27.89616151 -15 30 C-13.61403133 33.13405668 -12.00928844 35.21834182 -9.55859375 37.6015625 C-8.89279297 38.25640625 -8.22699219 38.91125 -7.54101562 39.5859375 C-6.49977539 40.59527344 -6.49977539 40.59527344 -5.4375 41.625 C-4.05901463 42.96911869 -2.68260599 44.31537153 -1.30859375 45.6640625 C-0.39291626 46.55279053 -0.39291626 46.55279053 0.54125977 47.45947266 C2.80566407 49.85083519 3.0004875 51.005265 3.3125 54.375 C3 58 3 58 1.4375 60.4375 C-2.09449535 62.70159958 -3.86141434 62.7587407 -8 62 C-14.6112574 57.30990805 -20.23820833 50.91319765 -25.9375 45.1875 C-26.79923828 44.32962891 -27.66097656 43.47175781 -28.54882812 42.58789062 C-29.77569336 41.3590918 -29.77569336 41.3590918 -31.02734375 40.10546875 C-31.76718506 39.36449951 -32.50702637 38.62353027 -33.26928711 37.86010742 C-35.6019189 35.35307941 -35.9683714 34.23925827 -36.42504883 30.78466797 C-35.85273692 25.68875801 -33.81075559 23.87132701 -30.19921875 20.4453125 C-29.60704056 19.85829559 -29.01486237 19.27127869 -28.40473938 18.66647339 C-27.15429919 17.43313013 -25.89554781 16.20816362 -24.62915039 14.99121094 C-22.68867229 13.12612675 -20.77340623 11.23789854 -18.86132812 9.34375 C-17.64201171 8.14702297 -16.42135305 6.95166168 -15.19921875 5.7578125 C-14.62411057 5.19434113 -14.04900238 4.63086975 -13.45646667 4.05032349 C-8.86573546 -0.34973155 -6.26355829 -1.69638037 0 0 Z " fill="#000000" transform="translate(69,128)"/>
<path d="M0 0 C0.67676285 -0.00335861 1.3535257 -0.00671722 2.05079651 -0.01017761 C4.28787064 -0.01967619 6.52486985 -0.02163012 8.76196289 -0.02270508 C10.31751028 -0.02591822 11.87305737 -0.02928234 13.42860413 -0.03279114 C16.68938905 -0.03877953 19.95014747 -0.04063132 23.2109375 -0.04003906 C27.38850508 -0.03993741 31.56590282 -0.05359393 35.74343014 -0.07081127 C38.95618978 -0.08193103 42.16890834 -0.08395828 45.38168526 -0.08342934 C46.92185616 -0.08460932 48.46202814 -0.08903216 50.0021801 -0.0967617 C52.15652233 -0.10656198 54.31049555 -0.10368367 56.46484375 -0.09765625 C57.69045517 -0.09908127 58.91606659 -0.10050629 60.17881775 -0.10197449 C63.17272152 0.13540066 64.83880903 0.46776161 67.29711914 2.14526367 C68.83849533 4.86102172 69.32441424 6.58571421 69.17211914 9.70776367 C68.0547734 12.82036966 66.90158834 14.09531068 64.29711914 16.14526367 C61.07165527 16.65319824 61.07165527 16.65319824 57.20532227 16.6628418 C56.49915268 16.66985107 55.79298309 16.67686035 55.06541443 16.68408203 C52.73599685 16.70165741 50.40779862 16.69004214 48.07836914 16.67651367 C46.45698819 16.67920875 44.83560882 16.6830913 43.2142334 16.68811035 C39.8180399 16.69400473 36.42226755 16.68544476 33.02612305 16.66674805 C28.67455779 16.64395806 24.32397932 16.65708153 19.97245026 16.6810379 C16.62494482 16.69549778 13.27767303 16.69088913 9.93016052 16.68052673 C8.32579939 16.67785995 6.72141698 16.68112756 5.11708069 16.69044495 C2.87378829 16.70061426 0.63208979 16.68510703 -1.61108398 16.6628418 C-2.88697388 16.65965942 -4.16286377 16.65647705 -5.47741699 16.65319824 C-8.70288086 16.14526367 -8.70288086 16.14526367 -11.11877441 14.33166504 C-13.41681257 11.15988718 -13.18043878 8.965727 -12.70288086 5.14526367 C-9.69932203 -0.28974754 -5.76251113 0.01793374 0 0 Z " fill="#000000" transform="translate(187.702880859375,280.854736328125)"/>
<path d="M0 0 C0.69641602 -0.00700928 1.39283203 -0.01401855 2.11035156 -0.02124023 C4.40730932 -0.03881383 6.70303021 -0.02720107 9 -0.01367188 C10.59896073 -0.01636701 12.19791987 -0.0202496 13.796875 -0.02526855 C17.14599226 -0.03116269 20.49468243 -0.0226038 23.84375 -0.00390625 C28.13478591 0.01888377 32.42482111 0.00576017 36.71582031 -0.01819611 C40.01700366 -0.03265667 43.31795011 -0.02804703 46.61914062 -0.01768494 C48.20117308 -0.01501834 49.78322711 -0.0182851 51.36523438 -0.02760315 C53.57740163 -0.03777366 55.787953 -0.02226378 58 0 C59.8871875 0.00477356 59.8871875 0.00477356 61.8125 0.00964355 C65.57742861 0.60959254 66.7788294 1.46295692 69 4.51757812 C69.46918683 8.27107274 69.53136381 10.55606266 67.6875 13.89257812 C64.40168008 17.05670101 60.82338899 16.65380644 56.49658203 16.67871094 C55.51310791 16.68615829 55.51310791 16.68615829 54.50976562 16.6937561 C52.34243721 16.70835165 50.17518197 16.71517519 48.0078125 16.72070312 C46.49950153 16.72645655 44.99119058 16.73221426 43.48287964 16.73797607 C40.32045145 16.74847851 37.15804864 16.75432619 33.99560547 16.7578125 C29.94809551 16.76329693 25.90092199 16.78732676 21.85351753 16.81578445 C18.73765083 16.8344296 15.62186489 16.83961742 12.50594711 16.84114838 C11.01403844 16.844171 9.52213106 16.85218641 8.03027725 16.86533356 C5.94066171 16.8824347 3.85186462 16.88050453 1.76220703 16.87402344 C-0.0195845 16.87949188 -0.0195845 16.87949188 -1.83737183 16.8850708 C-5.32665027 16.47962185 -7.20599237 15.61024477 -10 13.51757812 C-11.54586876 10.42584061 -11.29359521 7.9232826 -11 4.51757812 C-7.85835778 0.16024642 -5.19894918 0.01315052 0 0 Z " fill="#000000" transform="translate(96,249.482421875)"/>
<path d="M0 0 C0.64589584 -0.0049649 1.29179169 -0.00992981 1.95726013 -0.01504517 C4.0921231 -0.02963944 6.22691177 -0.03646404 8.36181641 -0.04199219 C9.84770713 -0.04774572 11.33359783 -0.05350343 12.81948853 -0.05926514 C15.93483831 -0.06976722 19.05016235 -0.07561512 22.16552734 -0.07910156 C26.15250539 -0.08458585 30.13914186 -0.10861551 34.1260128 -0.13707352 C37.19555651 -0.15572002 40.26501824 -0.16090655 43.3346138 -0.16243744 C44.80419406 -0.16545977 46.27377303 -0.17347419 47.74329758 -0.18662262 C49.80178394 -0.20372662 51.85943966 -0.20179294 53.91796875 -0.1953125 C55.08806488 -0.19895813 56.25816101 -0.20260376 57.4637146 -0.20635986 C60.94958263 0.20361409 62.808128 1.04929428 65.58837891 3.16113281 C67.08837891 5.97363281 67.08837891 5.97363281 67.58837891 9.16113281 C65.49535565 14.70764444 65.49535565 14.70764444 62.58837891 16.16113281 C60.36339229 16.27369744 58.13498909 16.32051705 55.90722656 16.33813477 C55.22085617 16.34470596 54.53448578 16.35127716 53.82731628 16.35804749 C51.55235692 16.3777838 49.27746354 16.38944301 47.00244141 16.39941406 C45.83771364 16.40552735 45.83771364 16.40552735 44.64945602 16.41176414 C40.54055802 16.43262515 36.43169342 16.44692736 32.32275391 16.45629883 C28.07661041 16.46737051 23.83098994 16.50177849 19.58503151 16.54147053 C16.32165545 16.56759993 13.05840479 16.57598729 9.79493332 16.57958031 C8.22961261 16.58445492 6.66429782 16.59609385 5.09907913 16.6146183 C2.90840279 16.63893581 0.71908996 16.63805936 -1.47167969 16.63110352 C-3.34126846 16.63990288 -3.34126846 16.63990288 -5.24862671 16.64888 C-8.41162109 16.16113281 -8.41162109 16.16113281 -10.81802368 14.35050964 C-13.12721542 11.1780077 -12.89002683 8.98837871 -12.41162109 5.16113281 C-9.46487272 -0.17107854 -5.66691977 0.03311389 0 0 Z " fill="#000000" transform="translate(302.41162109375,181.8388671875)"/>
<path d="M0 0 C1.12489334 -0.00960754 2.24978668 -0.01921509 3.4087677 -0.02911377 C5.23996407 -0.03548859 5.23996407 -0.03548859 7.1081543 -0.04199219 C8.98388374 -0.0505423 8.98388374 -0.0505423 10.89750671 -0.05926514 C13.54808188 -0.06872628 16.19854352 -0.07561722 18.84912109 -0.07910156 C22.23866025 -0.0845787 25.62779615 -0.10858956 29.01720905 -0.13707352 C32.25582684 -0.16022924 35.49446532 -0.1621519 38.7331543 -0.16699219 C39.94787918 -0.17933899 41.16260406 -0.19168579 42.41413879 -0.20440674 C43.54848862 -0.20140564 44.68283844 -0.19840454 45.8515625 -0.1953125 C46.84702591 -0.19895813 47.84248932 -0.20260376 48.86811829 -0.20635986 C52.10536278 0.22596923 53.97917708 1.27323753 56.61987305 3.16113281 C58.56650937 5.72715341 58.6275804 6.97230255 58.49487305 10.22363281 C57.45432331 13.71690694 56.72378721 14.3645769 53.61987305 16.16113281 C50.84997559 16.55554199 50.84997559 16.55554199 47.62963867 16.58105469 C46.42158569 16.59696655 45.21353271 16.61287842 43.96887207 16.62927246 C42.66776489 16.62947388 41.36665771 16.62967529 40.02612305 16.62988281 C38.67378422 16.6369863 37.32144841 16.64468558 35.96911621 16.6529541 C33.13793553 16.66638738 30.30703367 16.66797261 27.47583008 16.66210938 C23.85048388 16.65620805 20.22647452 16.68682487 16.60138702 16.72722626 C13.80976169 16.7530926 11.01845899 16.7559819 8.22673035 16.75233459 C6.24137016 16.75484769 4.2560782 16.77954985 2.27087402 16.80456543 C1.06282104 16.79526001 -0.14523193 16.78595459 -1.38989258 16.77636719 C-2.45260376 16.77842163 -3.51531494 16.78047607 -4.61022949 16.78259277 C-7.38012695 16.16113281 -7.38012695 16.16113281 -9.7232666 13.81408691 C-11.74887187 10.57070083 -12.01985859 8.91955618 -11.38012695 5.16113281 C-7.85464971 0.81304421 -5.44747798 0.03745471 0 0 Z " fill="#000000" transform="translate(176.380126953125,181.8388671875)"/>
<path d="M0 0 C2.61797136 2.26890851 2.96443489 3.61135518 3.28027344 7.06274414 C2.93060763 11.97481768 1.47199356 15.83598876 -0.359375 20.37109375 C-0.87785004 21.69283348 -0.87785004 21.69283348 -1.40679932 23.04127502 C-2.13772643 24.89827914 -2.87431354 26.75306425 -3.61621094 28.60571289 C-4.74325432 31.42065178 -5.85359494 34.2417139 -6.9609375 37.06445312 C-7.67611387 38.87538316 -8.39222935 40.68594266 -9.109375 42.49609375 C-9.43871033 43.32966904 -9.76804565 44.16324432 -10.10736084 45.02207947 C-15.7941971 59.1961314 -15.7941971 59.1961314 -20 62 C-23.4375 62.4375 -23.4375 62.4375 -27 62 C-29.5 60.0625 -29.5 60.0625 -31 57 C-31.24279852 50.01844618 -28.66254848 43.73055114 -26.0703125 37.3828125 C-25.67931366 36.40384003 -25.28831482 35.42486755 -24.88546753 34.41622925 C-24.06201121 32.36190559 -23.23307284 30.30977165 -22.39892578 28.25976562 C-21.12252653 25.1189135 -19.86673957 21.97038023 -18.61328125 18.8203125 C-17.80849664 16.81982732 -17.00254766 14.81981009 -16.1953125 12.8203125 C-15.82020538 11.87970978 -15.44509827 10.93910706 -15.05862427 9.97000122 C-14.52324539 8.66251419 -14.52324539 8.66251419 -13.97705078 7.32861328 C-13.51191574 6.18019455 -13.51191574 6.18019455 -13.03738403 5.00857544 C-10.07736261 -0.72259658 -6.07815102 -1.6461659 0 0 Z " fill="#000000" transform="translate(107,128)"/>
<path d="M0 0 C1.56687561 -0.00934319 1.56687561 -0.00934319 3.16540527 -0.01887512 C4.28322388 -0.00966537 5.40104248 -0.00045563 6.55273438 0.0090332 C7.71019165 0.0085347 8.86764893 0.00803619 10.06018066 0.00752258 C12.5044934 0.00986045 14.94880866 0.01957193 17.39306641 0.03613281 C21.13270617 0.05972752 24.87163282 0.05669083 28.61132812 0.05004883 C30.98763446 0.05562574 33.36393779 0.0627357 35.74023438 0.0715332 C36.85805298 0.0706218 37.97587158 0.06971039 39.12756348 0.06877136 C40.17214722 0.07830338 41.21673096 0.08783539 42.29296875 0.09765625 C43.20832397 0.10226364 44.1236792 0.10687103 45.06677246 0.11161804 C47.95777719 0.40377259 50.06041945 1.05090667 52.64648438 2.37231445 C55.12687344 6.09289806 55.10985641 7.97028016 54.64648438 12.37231445 C52.57570574 15.09436435 51.38236761 16.23158414 47.99047852 16.88024902 C46.47635376 16.88502258 46.47635376 16.88502258 44.93164062 16.88989258 C43.20965454 16.90880554 43.20965454 16.90880554 41.45288086 16.92810059 C40.21739502 16.92000366 38.98190918 16.91190674 37.70898438 16.90356445 C36.43676025 16.90739136 35.16453613 16.91121826 33.85375977 16.91516113 C31.1633461 16.91788372 28.47438567 16.91251259 25.78417969 16.89379883 C22.34053692 16.87100807 18.89814111 16.88413414 15.45454407 16.90808868 C12.1643131 16.92603997 8.87423163 16.91346166 5.58398438 16.90356445 C4.34849854 16.91166138 3.1130127 16.9197583 1.84008789 16.92810059 C0.69209717 16.91549194 -0.45589355 16.9028833 -1.63867188 16.88989258 C-2.64808838 16.88671021 -3.65750488 16.88352783 -4.69750977 16.88024902 C-8.05567453 16.23803358 -9.22659746 14.98943632 -11.35351562 12.37231445 C-12.53360425 9.75926107 -12.41214819 8.61270796 -11.72851562 5.80981445 C-9.07414194 1.10433383 -5.17334377 -0.00355734 0 0 Z " fill="#000000" transform="translate(404.353515625,323.627685546875)"/>
<path d="M0 0 C1.14814178 -0.01283524 2.29628357 -0.02567047 3.47921753 -0.03889465 C4.72502594 -0.04628159 5.97083435 -0.05366852 7.25439453 -0.0612793 C8.52944855 -0.06935104 9.80450256 -0.07742279 11.11819458 -0.08573914 C13.82004439 -0.09958932 16.52177178 -0.11060332 19.22363281 -0.11816406 C22.6828862 -0.12923189 26.14149689 -0.16363637 29.60052299 -0.20333576 C32.9017499 -0.23577697 36.20303251 -0.24027848 39.50439453 -0.2487793 C41.36703445 -0.27504143 41.36703445 -0.27504143 43.26730347 -0.30183411 C44.99897263 -0.29744576 44.99897263 -0.29744576 46.765625 -0.29296875 C47.78107391 -0.29883499 48.79652283 -0.30470123 49.84274292 -0.31074524 C53.25389069 0.31251759 54.43189494 1.44673266 56.51220703 4.17700195 C56.97738124 7.8983956 57.02075661 10.21075775 55.26220703 13.55200195 C52.08740502 16.50003239 48.44841848 16.30705819 44.2722168 16.33813477 C43.22755753 16.34774231 42.18289825 16.35734985 41.10658264 16.36724854 C39.42211281 16.37362335 39.42211281 16.37362335 37.70361328 16.38012695 C35.96530495 16.38867706 35.96530495 16.38867706 34.19187927 16.3973999 C31.74161694 16.40684242 29.29134195 16.41338091 26.84106445 16.41723633 C23.09254895 16.42695569 19.34457858 16.45799256 15.59619141 16.48950195 C13.21533529 16.49603085 10.83447525 16.50128177 8.45361328 16.50512695 C6.77217979 16.52364716 6.77217979 16.52364716 5.05677795 16.5425415 C4.00896652 16.53954041 2.96115509 16.53653931 1.8815918 16.53344727 C0.50403465 16.53891571 0.50403465 16.53891571 -0.90135193 16.54449463 C-4.0610648 16.09554902 -5.92436068 15.05403351 -8.48779297 13.17700195 C-9.98779297 10.36450195 -9.98779297 10.36450195 -10.48779297 7.17700195 C-8.12400435 0.9129621 -6.41959087 0.06233201 0 0 Z " fill="#000000" transform="translate(402.48779296875,242.822998046875)"/>
<path d="M0 0 C1.22404541 -0.0038269 2.44809082 -0.00765381 3.70922852 -0.01159668 C6.29476749 -0.01431622 8.88033396 -0.00695227 11.46582031 0.00976562 C15.42315009 0.03117238 19.37866419 0.00996294 23.3359375 -0.015625 C25.84896234 -0.01298173 28.36198605 -0.00785679 30.875 0 C32.05843994 -0.00809692 33.24187988 -0.01619385 34.46118164 -0.02453613 C42.65166371 0.06895161 42.65166371 0.06895161 46.68115234 2.43945312 C48.56803115 4.68671162 49.11917096 5.62969687 49.0625 8.53125 C49.08183594 9.52125 49.08183594 9.52125 49.1015625 10.53125 C47.98579477 13.89167987 46.5086527 14.72452642 43.4375 16.53125 C39.25359838 17.14203134 35.09699211 17.09138626 30.875 17.0625 C29.65095459 17.0663269 28.42690918 17.07015381 27.16577148 17.07409668 C24.58023251 17.07681622 21.99466604 17.06945227 19.40917969 17.05273438 C15.45184991 17.03132762 11.49633581 17.05253706 7.5390625 17.078125 C5.02603766 17.07548173 2.51301395 17.07035679 0 17.0625 C-1.18343994 17.07059692 -2.36687988 17.07869385 -3.58618164 17.08703613 C-11.77666371 16.99354839 -11.77666371 16.99354839 -15.80615234 14.62304688 C-17.69303115 12.37578838 -18.24417096 11.43280313 -18.1875 8.53125 C-18.20039063 7.87125 -18.21328125 7.21125 -18.2265625 6.53125 C-15.59772213 -1.38619866 -6.74124551 -0.04612262 0 0 Z " fill="#000000" transform="translate(410.5625,405.46875)"/>
<path d="M0 0 C1.59713333 -0.01441132 1.59713333 -0.01441132 3.22653198 -0.02911377 C4.37654694 -0.03336365 5.52656189 -0.03761353 6.71142578 -0.04199219 C7.893909 -0.04769226 9.07639221 -0.05339233 10.29470825 -0.05926514 C12.79802556 -0.06871683 15.30135531 -0.07524979 17.8046875 -0.07910156 C21.63449789 -0.0888108 25.46377254 -0.11983499 29.29345703 -0.15136719 C31.72444342 -0.15789687 34.15543366 -0.16314748 36.58642578 -0.16699219 C38.30537552 -0.18551239 38.30537552 -0.18551239 40.05905151 -0.20440674 C41.13011139 -0.20140564 42.20117126 -0.19840454 43.3046875 -0.1953125 C44.24384003 -0.19895813 45.18299255 -0.20260376 46.15060425 -0.20635986 C49.31762249 0.2359802 51.20326622 1.29976739 53.78173828 3.16113281 C55.32760704 6.25287033 55.07533349 8.75542834 54.78173828 12.16113281 C52.71506429 14.88902714 51.51902303 16.02013447 48.12573242 16.66906738 C46.61160767 16.67384094 46.61160767 16.67384094 45.06689453 16.67871094 C43.34490845 16.6976239 43.34490845 16.6976239 41.58813477 16.71691895 C40.35264893 16.70882202 39.11716309 16.7007251 37.84423828 16.69238281 C36.57201416 16.69620972 35.29979004 16.70003662 33.98901367 16.70397949 C31.29860001 16.70670208 28.60963957 16.70133095 25.91943359 16.68261719 C22.47579083 16.65982643 19.03339501 16.6729525 15.58979797 16.69690704 C12.299567 16.71485833 9.00948554 16.70228002 5.71923828 16.69238281 C4.48375244 16.70047974 3.2482666 16.70857666 1.9753418 16.71691895 C0.82735107 16.7043103 -0.32063965 16.69170166 -1.50341797 16.67871094 C-2.51283447 16.67552856 -3.52225098 16.67234619 -4.56225586 16.66906738 C-7.95276034 16.02066729 -9.14337695 14.87734836 -11.21826172 12.16113281 C-11.68744855 8.4076382 -11.74962553 6.12264828 -9.90576172 2.78613281 C-6.92633341 -0.0829463 -3.93163049 0.02863299 0 0 Z " fill="#000000" transform="translate(110.21826171875,280.8388671875)"/>
<path d="M0 0 C1.06483109 -0.00960754 2.12966217 -0.01921509 3.22676086 -0.02911377 C4.3819371 -0.03336365 5.53711334 -0.03761353 6.72729492 -0.04199219 C7.91119308 -0.04769226 9.09509125 -0.05339233 10.31486511 -0.05926514 C12.82415877 -0.0687254 15.3334649 -0.07525318 17.84277344 -0.07910156 C21.68145459 -0.08880071 25.51959905 -0.11981269 29.3581543 -0.15136719 C31.79369799 -0.15789768 34.22924551 -0.16314797 36.66479492 -0.16699219 C38.38845024 -0.18551239 38.38845024 -0.18551239 40.14692688 -0.20440674 C41.22121445 -0.20140564 42.29550201 -0.19840454 43.40234375 -0.1953125 C44.81559685 -0.20078094 44.81559685 -0.20078094 46.25740051 -0.20635986 C49.7161788 0.27549822 52.41083656 1.6767057 54.89526367 4.16113281 C55.48997881 11.41665746 55.48997881 11.41665746 53.21910095 14.25938416 C50.35282118 16.60504913 48.95410437 16.67159476 45.28808594 16.69458008 C44.16334366 16.71041641 43.03860138 16.72625275 41.879776 16.74256897 C40.66930099 16.7376091 39.45882599 16.73264923 38.21166992 16.72753906 C36.34018532 16.73683693 36.34018532 16.73683693 34.43089294 16.74632263 C31.7917388 16.75342836 29.15410735 16.75217805 26.51513672 16.73754883 C23.14089402 16.72037064 19.76835578 16.74384324 16.39430332 16.77903843 C13.16673888 16.80633991 9.93931725 16.79627394 6.71166992 16.79003906 C4.89899376 16.80992638 4.89899376 16.80992638 3.04969788 16.83021545 C-6.27231308 16.72662969 -6.27231308 16.72662969 -9.37060547 13.81323242 C-11.49897792 10.55819794 -11.83524571 8.97601515 -11.10473633 5.16113281 C-7.67007392 0.92504918 -5.31279051 0.03860018 0 0 Z " fill="#000000" transform="translate(48.104736328125,217.8388671875)"/>
<path d="M0 0 C1.27174576 -0.00956978 1.27174576 -0.00956978 2.56918335 -0.01933289 C3.48688507 -0.02044571 4.40458679 -0.02155853 5.35009766 -0.02270508 C6.76326767 -0.02769768 6.76326767 -0.02769768 8.20498657 -0.03279114 C10.20061758 -0.03785975 12.19625709 -0.04019948 14.19189453 -0.04003906 C17.2447713 -0.04222246 20.29728501 -0.06037036 23.35009766 -0.0793457 C25.28759642 -0.08228025 27.2250969 -0.08426463 29.16259766 -0.08520508 C30.53307755 -0.09598335 30.53307755 -0.09598335 31.9312439 -0.10697937 C32.78537872 -0.10390274 33.63951355 -0.10082611 34.51953125 -0.09765625 C35.26850677 -0.09908127 36.0174823 -0.10050629 36.78915405 -0.10197449 C39.21501486 0.18362724 40.8064627 0.88547327 42.88916016 2.14526367 C44.77802269 4.66374705 44.89631854 5.97346235 44.76416016 9.14526367 C43.6958195 12.80814591 42.99663053 13.91435755 39.88916016 16.14526367 C36.54082027 16.76119524 33.22759711 16.72944314 29.83056641 16.71166992 C28.35861061 16.72096779 28.35861061 16.72096779 26.85691833 16.73045349 C24.78328442 16.73755177 22.70959352 16.73437754 20.63598633 16.72167969 C17.46605272 16.70782657 14.29907823 16.74187 11.12939453 16.7800293 C9.11311777 16.78098063 7.09683732 16.77912091 5.08056641 16.77416992 C3.66161827 16.79405724 3.66161827 16.79405724 2.21400452 16.81434631 C-2.37417472 16.74956351 -4.45824087 16.63924591 -8.21264648 13.79736328 C-10.11083984 11.14526367 -10.11083984 11.14526367 -10.67333984 8.08276367 C-9.99262469 4.52791787 -8.91011525 3.36821767 -6.11083984 1.14526367 C-3.82639095 0.00303922 -2.53856504 0.01294715 0 0 Z " fill="#000000" transform="translate(47.11083984375,280.854736328125)"/>
<path d="M0 0 C0.91567245 -0.00004028 1.83134491 -0.00008057 2.77476501 -0.00012207 C4.70546351 0.00522701 6.6361619 0.02278358 8.56665039 0.05175781 C11.52102164 0.09366033 14.47311567 0.09282071 17.42773438 0.0859375 C19.30600542 0.0964289 21.18426472 0.10936674 23.0625 0.125 C23.94486832 0.12520142 24.82723663 0.12540283 25.73634338 0.12561035 C29.30351059 0.19445818 31.79824569 0.24626187 34.99389648 1.91210938 C37.38215385 4.6424524 37.40365344 7.04471195 37.46484375 10.59375 C36.11921976 13.54130732 35.37929831 15.13652272 32.46484375 16.59375 C31.13375384 16.70747327 29.79739984 16.76297953 28.46166992 16.78662109 C27.22479683 16.81071548 27.22479683 16.81071548 25.9629364 16.83529663 C22.19006176 16.87977528 18.41736266 16.92081263 14.64428711 16.94384766 C12.65491028 16.96040551 10.6655929 16.98769328 8.67651367 17.02587891 C5.8074662 17.08067264 2.93981288 17.10252517 0.0703125 17.1171875 C-0.81630569 17.13985687 -1.70292389 17.16252625 -2.6164093 17.18588257 C-7.08063021 17.17062765 -8.94662048 17.04462125 -12.59643555 14.24853516 C-14.53515625 11.59375 -14.53515625 11.59375 -15.16015625 8.59375 C-13.41554295 0.21960617 -7.1994753 -0.13408086 0 0 Z " fill="#000000" transform="translate(308.53515625,405.40625)"/>
<path d="M0 0 C0.8273465 -0.0033284 1.65469299 -0.0066568 2.5071106 -0.01008606 C4.25717615 -0.01514739 6.00725135 -0.01749463 7.75732422 -0.01733398 C10.42822272 -0.01951728 13.09870599 -0.0376724 15.76953125 -0.05664062 C17.47135276 -0.05957539 19.17317622 -0.06155963 20.875 -0.0625 C21.67098602 -0.06968552 22.46697205 -0.07687103 23.28707886 -0.08427429 C27.47816251 -0.06709841 30.7836291 0.14517553 34.5703125 2.16796875 C36.73750456 4.82770445 36.56566113 6.25634471 36.3828125 9.73046875 C35.56212033 13.20262794 35.2918044 14.0933249 32.5703125 16.16796875 C30.5660553 16.5556488 30.5660553 16.5556488 28.25415039 16.57202148 C26.9524868 16.59104774 26.9524868 16.59104774 25.62452698 16.61045837 C24.69011276 16.60752274 23.75569855 16.6045871 22.79296875 16.6015625 C21.83007431 16.60680435 20.86717987 16.6120462 19.87510681 16.6174469 C17.83837854 16.62387126 15.80161319 16.62252476 13.76489258 16.61401367 C10.64792779 16.60550999 7.53279898 16.6342494 4.41601562 16.66601562 C2.43750055 16.66762786 0.45898223 16.66704968 -1.51953125 16.6640625 C-2.91811623 16.68091347 -2.91811623 16.68091347 -4.34495544 16.69810486 C-10.77144145 16.6288838 -10.77144145 16.6288838 -14.01782227 14.35571289 C-16.1011374 11.12752908 -15.96601999 8.92229619 -15.4296875 5.16796875 C-11.23613775 -0.32702748 -6.42851221 0.00894186 0 0 Z " fill="#000000" transform="translate(309.4296875,323.83203125)"/>
<path d="M0 0 C0.96147949 -0.00619858 1.92295898 -0.01239716 2.91357422 -0.01878357 C4.94432564 -0.02588057 6.97513526 -0.02270983 9.00585938 -0.01000977 C12.11436878 0.00385882 15.21986975 -0.03021976 18.328125 -0.06835938 C20.30208407 -0.06931055 22.27604691 -0.06745184 24.25 -0.0625 C25.17925293 -0.07575821 26.10850586 -0.08901642 27.06591797 -0.10267639 C33.47157049 -0.01015278 33.47157049 -0.01015278 36.74609375 2.87915039 C38.62869999 6.54803263 38.21430952 8.64489198 37.125 12.56640625 C35.22966125 15.1509591 34.23673483 15.52916131 31.125 16.56640625 C28.31855119 16.68752416 25.53773229 16.75456003 22.73046875 16.76953125 C21.90549393 16.77523132 21.0805191 16.7809314 20.23054504 16.7868042 C18.48468302 16.79624748 16.73880323 16.80278551 14.99291992 16.80664062 C12.33285082 16.81633211 9.67355922 16.84735537 7.01367188 16.87890625 C5.31510874 16.88543814 3.6165401 16.89068788 1.91796875 16.89453125 C0.73173164 16.91305145 0.73173164 16.91305145 -0.47846985 16.9319458 C-5.33684657 16.91252207 -8.66324731 16.2555774 -12.875 13.56640625 C-14.42086876 10.47466873 -14.16859521 7.97211073 -13.875 4.56640625 C-10.48737087 -0.72676426 -5.67972159 -0.0303154 0 0 Z " fill="#000000" transform="translate(307.875,242.43359375)"/>
<path d="M0 0 C1.92005859 -0.0309375 1.92005859 -0.0309375 3.87890625 -0.0625 C5.72935547 -0.07023438 5.72935547 -0.07023438 7.6171875 -0.078125 C8.74495605 -0.0874707 9.87272461 -0.09681641 11.03466797 -0.10644531 C14.48684756 0.29173625 16.33935172 1.21397385 19.125 3.25 C21.07163632 5.8160206 21.13270736 7.06116974 21 10.3125 C19.9487009 13.84186127 19.30094305 14.47815809 16.125 16.25 C13.55317283 16.56578689 11.22796756 16.71799782 8.65625 16.71875 C7.938927 16.72636353 7.221604 16.73397705 6.48254395 16.74182129 C4.96968051 16.75260101 3.45674278 16.75548402 1.94384766 16.75097656 C-0.36812367 16.7500029 -2.67678789 16.79166544 -4.98828125 16.8359375 C-6.4609306 16.84114404 -7.93359145 16.8438327 -9.40625 16.84375 C-10.09489136 16.86014526 -10.78353271 16.87654053 -11.49304199 16.89343262 C-15.17979244 16.8404469 -16.6161409 16.49931017 -19.31054688 13.90429688 C-21.2231589 10.65930344 -21.50590953 8.95659351 -20.875 5.25 C-15.57024765 -1.51813231 -7.85277617 0.03144255 0 0 Z " fill="#000000" transform="translate(185.875,148.75)"/>
<path d="M0 0 C1.00939636 -0.00786278 1.00939636 -0.00786278 2.03918457 -0.0158844 C3.45791243 -0.02229035 4.8766935 -0.02098602 6.29541016 -0.01245117 C8.46222647 -0.0039319 10.62641213 -0.03272942 12.79296875 -0.06445312 C14.17447838 -0.06606517 15.55599266 -0.06548755 16.9375 -0.0625 C18.81598633 -0.06527954 18.81598633 -0.06527954 20.73242188 -0.06811523 C24.52563706 0.51992469 25.6745456 1.42054326 27.96875 4.43359375 C29.05107681 7.44864701 29.07644687 9.0125969 28.28125 12.12109375 C26.70740152 14.89406488 25.9216548 15.32842024 22.96875 16.43359375 C19.91601562 16.69238281 19.91601562 16.69238281 16.375 16.69921875 C15.09753906 16.70179688 13.82007813 16.704375 12.50390625 16.70703125 C11.84148926 16.7028418 11.17907227 16.69865234 10.49658203 16.69433594 C8.47528057 16.68362834 6.45486775 16.69424771 4.43359375 16.70703125 C3.15613281 16.70445312 1.87867188 16.701875 0.5625 16.69921875 C-0.60603516 16.69696289 -1.77457031 16.69470703 -2.97851562 16.69238281 C-5.92831494 16.44231985 -7.57707367 16.03383153 -10.03125 14.43359375 C-12.1128402 11.75726349 -12.02712591 10.31605707 -11.90625 6.87109375 C-11.03125 3.43359375 -11.03125 3.43359375 -9.41601562 1.74584961 C-6.17721592 -0.03635232 -3.68755121 0.0287052 0 0 Z " fill="#000000" transform="translate(225.03125,249.56640625)"/>
<path d="M0 0 C1.70542969 -0.0309375 1.70542969 -0.0309375 3.4453125 -0.0625 C5.09273438 -0.07023438 5.09273438 -0.07023438 6.7734375 -0.078125 C7.77552246 -0.0874707 8.77760742 -0.09681641 9.81005859 -0.10644531 C13.11531174 0.31208631 14.96310892 1.27239519 17.625 3.25 C19.125 6.0625 19.125 6.0625 19.625 9.25 C17.53197674 14.79651163 17.53197674 14.79651163 14.625 16.25 C10.52092997 16.50708059 6.41519491 16.52096338 2.30371094 16.54516602 C0.26429008 16.56237939 -1.77350883 16.60626835 -3.8125 16.65039062 C-5.74222656 16.66295898 -5.74222656 16.66295898 -7.7109375 16.67578125 C-9.48283447 16.69765503 -9.48283447 16.69765503 -11.29052734 16.7199707 C-14.375 16.25 -14.375 16.25 -16.76416016 14.44213867 C-19.09487662 11.27034372 -18.85480342 9.08842739 -18.375 5.25 C-14.56805182 -1.63876338 -6.91030532 0.0311275 0 0 Z " fill="#000000" transform="translate(262.375,181.75)"/>
<path d="M0 0 C1.9190918 -0.01643555 1.9190918 -0.01643555 3.87695312 -0.03320312 C13.29100106 0.04092324 13.29100106 0.04092324 16.30273438 2.47070312 C19.02501442 5.95405071 18.41779595 8.23983643 17.9375 12.5625 C16.12586733 15.23681489 15.05988923 15.52170359 11.9375 16.5625 C7.79550862 16.79643307 3.64789731 16.74767364 -0.5 16.75 C-1.64533203 16.76224609 -2.79066406 16.77449219 -3.97070312 16.78710938 C-5.07220703 16.78904297 -6.17371094 16.79097656 -7.30859375 16.79296875 C-8.31591553 16.79707764 -9.3232373 16.80118652 -10.36108398 16.80541992 C-13.15761236 16.55394719 -14.73626169 16.10828552 -17.0625 14.5625 C-19.40799674 11.04425489 -19.64241403 9.70474306 -19.0625 5.5625 C-14.68432492 -1.5027541 -7.5588704 -0.14132299 0 0 Z " fill="#000000" transform="translate(56.0625,249.4375)"/>
<path d="M0 0 C0.91136719 -0.02900391 1.82273438 -0.05800781 2.76171875 -0.08789062 C9.44036549 -0.15145022 9.44036549 -0.15145022 12.73046875 2.078125 C15.03769211 5.77485262 14.60379673 8.0033294 14.125 12.3125 C12.31336733 14.98681489 11.24738923 15.27170359 8.125 16.3125 C5.48562776 16.46071529 2.88993877 16.54347341 0.25 16.5625 C-0.45769531 16.583125 -1.16539062 16.60375 -1.89453125 16.625 C-6.419373 16.65870459 -9.30973992 16.15001973 -12.875 13.3125 C-14.375 10.5 -14.375 10.5 -14.875 7.3125 C-11.80860631 -0.81344328 -7.7714271 0.08174713 0 0 Z " fill="#000000" transform="translate(190.875,249.6875)"/>
<path d="M0 0 C0.80308594 -0.03287109 1.60617187 -0.06574219 2.43359375 -0.09960938 C6.8065457 -0.1392325 8.58457119 0.0203391 12.15625 2.77734375 C14.125 5.4375 14.125 5.4375 14.75 8.4375 C13.89266242 12.5527204 12.42503968 13.86028518 9.125 16.4375 C6.24313256 17.08105902 3.50105149 17.00364045 0.5625 16.875 C-0.56961914 16.86629883 -0.56961914 16.86629883 -1.72460938 16.85742188 C-8.88622982 16.69967693 -8.88622982 16.69967693 -11.875 14.4375 C-13.38642987 10.79632803 -14.13297987 8.49287218 -13.1875 4.625 C-10.01656325 -0.65989459 -5.45863702 0.03905225 0 0 Z " fill="#000000" transform="translate(368.875,405.5625)"/>
<path d="M0 0 C1.20527344 -0.00515625 2.41054688 -0.0103125 3.65234375 -0.015625 C6.95779648 0.2418444 9.15479203 0.68951272 12.0625 2.25 C14.40418764 5.76253146 14.55873677 7.11469356 14.0625 11.25 C12.6328125 13.91015625 12.6328125 13.91015625 10.0625 16.25 C6.88191019 16.97282681 3.81037183 16.90312689 0.5625 16.8125 C-0.29214844 16.82345703 -1.14679688 16.83441406 -2.02734375 16.84570312 C-8.23317067 16.77309205 -8.23317067 16.77309205 -11.47265625 14.3671875 C-13.21963634 11.84221894 -13.86237055 10.33030753 -13.9375 7.25 C-12.73411576 4.52655146 -11.74585705 2.79329113 -9.2578125 1.12109375 C-6.10354871 -0.06308272 -3.36193574 -0.01435191 0 0 Z " fill="#000000" transform="translate(368.9375,323.75)"/>
<path d="M0 0 C0.86367188 -0.03738281 1.72734375 -0.07476562 2.6171875 -0.11328125 C8.97101238 -0.20152882 8.97101238 -0.20152882 12.23046875 2.671875 C14.1284763 6.35092604 13.71862914 8.43793511 12.625 12.375 C10.72966125 14.95955285 9.73673483 15.33775506 6.625 16.375 C4.33648355 16.52119515 2.04299684 16.59591336 -0.25 16.625 C-1.46429688 16.65078125 -2.67859375 16.6765625 -3.9296875 16.703125 C-7.63311619 16.35041751 -9.45401142 15.63212754 -12.375 13.375 C-13.875 10.5625 -13.875 10.5625 -14.375 7.375 C-11.38045332 -0.5605487 -7.60537233 0.12375606 0 0 Z " fill="#000000" transform="translate(369.375,242.625)"/>
</svg>
