<?xml version="1.0" standalone="no"?>
<!DOCTYPE svg PUBLIC "-//W3C//DTD SVG 20010904//EN"
 "http://www.w3.org/TR/2001/REC-SVG-20010904/DTD/svg10.dtd">
<svg version="1.0" xmlns="http://www.w3.org/2000/svg"
 width="512.000000pt" height="512.000000pt" viewBox="0 0 512.000000 512.000000"
 preserveAspectRatio="xMidYMid meet">
<metadata>
Created by potrace 1.16, written by Peter Selinger 2001-2019
</metadata>
<g transform="translate(0.000000,512.000000) scale(0.100000,-0.100000)"
fill="#000000" stroke="none">
<path d="M542 4641 c-106 -37 -176 -120 -193 -232 -6 -41 -9 -724 -7 -1894 l3
-1830 21 -46 c31 -66 78 -114 142 -146 l57 -28 1995 0 1995 0 57 28 c66 33
119 89 145 156 17 44 18 140 21 1871 2 1303 -1 1844 -8 1892 -14 80 -52 145
-111 188 -89 64 51 60 -2103 60 -1873 -1 -1963 -1 -2014 -19z m4024 -136 c28
-16 49 -39 63 -68 19 -40 21 -60 21 -260 l0 -217 -2090 0 -2090 0 0 217 c0
199 2 220 21 260 13 28 35 52 62 68 l42 25 1964 0 1964 0 43 -25z m84 -2222
l0 -1557 -21 -43 c-14 -29 -35 -52 -63 -68 l-43 -25 -1963 0 -1963 0 -43 25
c-28 16 -49 39 -63 68 l-21 43 0 1557 0 1557 2090 0 2090 0 0 -1557z"/>
<path d="M820 4417 c-79 -27 -124 -90 -124 -171 0 -100 64 -167 165 -174 78
-6 137 27 169 93 70 145 -62 303 -210 252z"/>
<path d="M1277 4416 c-104 -38 -147 -156 -94 -256 55 -105 213 -122 290 -31
53 64 58 152 12 222 -40 62 -136 92 -208 65z"/>
<path d="M1747 4415 c-76 -27 -120 -89 -120 -170 0 -99 63 -166 164 -173 50
-4 65 0 104 22 55 32 85 86 85 151 0 86 -49 153 -128 175 -47 13 -58 12 -105
-5z"/>
<path d="M3156 4291 c-26 -28 -18 -82 14 -98 20 -10 155 -12 623 -10 l599 2
19 24 c24 30 24 56 -1 81 -20 20 -33 20 -628 20 -586 0 -610 -1 -626 -19z"/>
<path d="M1466 3184 c-22 -21 -20 -67 2 -87 16 -15 48 -17 240 -17 l221 0 12
-42 c6 -24 76 -281 155 -571 79 -291 144 -532 144 -538 0 -5 -76 -9 -186 -9
-212 0 -238 -7 -281 -72 -58 -86 -34 -203 51 -253 41 -24 51 -25 196 -25 l152
0 -7 -22 c-14 -47 -17 -137 -5 -173 16 -50 75 -114 125 -136 53 -24 147 -24
200 0 50 22 109 86 125 136 12 37 10 144 -5 178 -7 16 6 17 188 17 l194 0 -15
-55 c-44 -157 77 -304 242 -293 113 7 192 74 217 183 10 46 10 64 -3 110 l-15
54 146 3 145 3 16 28 c13 24 13 30 0 55 l-16 27 -900 5 c-966 5 -934 3 -934
55 0 12 8 29 18 38 17 16 86 17 793 17 605 0 779 3 792 13 10 7 72 203 168
529 148 503 152 518 135 542 l-16 26 -763 0 c-580 0 -766 -3 -775 -12 -7 -7
-12 -26 -12 -43 0 -64 -49 -60 723 -65 l705 -5 -127 -430 -126 -430 -504 0
-504 0 -172 628 c-101 370 -177 632 -186 638 -8 5 -132 9 -276 9 -225 0 -264
-2 -277 -16z m984 -1644 c14 -9 31 -33 39 -53 12 -32 11 -40 -5 -74 -12 -25
-32 -45 -57 -57 -34 -16 -42 -17 -74 -5 -96 37 -102 165 -10 204 36 16 71 11
107 -15z m784 16 c95 -40 100 -158 8 -202 -69 -33 -152 23 -152 103 0 38 48
99 83 106 12 2 23 5 25 6 1 0 17 -5 36 -13z"/>
<path d="M1023 2850 c-45 -19 -53 -89 -13 -110 11 -6 148 -10 333 -10 291 0
315 1 330 18 21 23 22 62 3 88 -14 18 -30 19 -323 21 -169 1 -318 -2 -330 -7z"/>
<path d="M1232 2548 c-18 -18 -14 -73 6 -91 16 -15 53 -17 305 -17 274 0 288
1 307 20 24 24 25 48 4 78 -15 22 -17 22 -313 22 -218 0 -300 -3 -309 -12z"/>
<path d="M1467 2252 c-22 -24 -21 -65 1 -85 16 -15 51 -17 279 -17 239 0 261
1 276 18 21 23 22 66 1 86 -13 14 -53 16 -278 16 -242 0 -264 -1 -279 -18z"/>
</g>
</svg>
