<?xml version="1.0" standalone="no"?>
<!DOCTYPE svg PUBLIC "-//W3C//DTD SVG 20010904//EN" "http://www.w3.org/TR/2001/REC-SVG-20010904/DTD/svg10.dtd">
<svg version="1.0" xmlns="http://www.w3.org/2000/svg"
    width="512.000000pt" height="512.000000pt" viewBox="0 0 512.000000 512.000000"
    preserveAspectRatio="xMidYMid meet" class="services__svg-icon">
    <metadata> Created by potrace 1.16, written by Peter Selinger 2001-2019 </metadata>
    <g transform="translate(0.000000,512.000000) scale(0.100000,-0.100000)"
         stroke="none">
        <path
            d="M432 4299 c-71 -28 -144 -101 -171 -174 -21 -55 -21 -63 -21 -1339
l0 -1283 23 -21 c32 -30 87 -29 115 1 l22 23 0 967 0 967 2160 0 2160 0 0
-1152 c0 -654 -4 -1170 -10 -1192 -5 -22 -19 -53 -31 -69 -17 -24 -20 -34 -11
-46 26 -36 52 -92 52 -111 0 -11 6 -20 13 -20 21 0 95 79 119 129 l23 46 3
1522 2 1522 -21 56 c-28 74 -99 146 -174 174 l-56 21 -2072 -1 c-2058 0 -2072
0 -2125 -20z m4152 -149 c49 -11 85 -37 111 -81 18 -31 20 -56 23 -251 l4
-218 -2162 0 -2162 0 4 218 c3 195 5 220 23 251 25 42 62 71 106 81 48 11
4005 12 4053 0z" />
        <path
            d="M672 4020 c-48 -30 -72 -75 -72 -140 0 -100 60 -160 160 -160 100 0
160 60 160 160 0 100 -60 160 -160 160 -37 0 -66 -6 -88 -20z" />
        <path
            d="M1232 4020 c-48 -30 -72 -75 -72 -140 0 -100 60 -160 160 -160 100 0
160 60 160 160 0 100 -60 160 -160 160 -37 0 -66 -6 -88 -20z" />
        <path
            d="M1792 4020 c-48 -30 -72 -75 -72 -140 0 -100 60 -160 160 -160 100 0
160 60 160 160 0 100 -60 160 -160 160 -37 0 -66 -6 -88 -20z" />
        <path
            d="M988 2620 c-9 -6 -21 -25 -27 -43 -10 -29 1 -68 99 -372 89 -276 114
-344 135 -362 30 -27 74 -29 115 -8 30 15 44 46 126 282 l38 112 61 -172 c34
-95 67 -182 73 -193 25 -46 119 -56 155 -16 22 24 227 661 227 706 0 48 -28
76 -78 76 -21 0 -46 -6 -56 -13 -15 -11 -82 -196 -137 -382 -12 -38 -24 -73
-28 -77 -3 -4 -33 67 -66 159 -32 91 -68 177 -79 190 -13 15 -36 26 -62 30
-69 9 -87 -16 -159 -217 -34 -95 -64 -169 -67 -164 -3 5 -38 109 -77 231 -51
161 -77 225 -91 233 -24 13 -80 13 -102 0z" />
        <path
            d="M2061 2604 c-12 -15 -21 -37 -21 -50 0 -14 48 -172 106 -352 116
-362 127 -382 200 -382 60 0 83 34 149 223 32 92 62 167 66 167 3 0 33 -75 65
-167 65 -189 88 -223 148 -223 73 0 84 20 200 383 59 181 106 339 106 351 0
13 -9 35 -21 50 -16 20 -29 26 -61 26 -24 0 -49 -7 -59 -16 -11 -10 -50 -114
-91 -240 -39 -124 -75 -221 -78 -217 -4 5 -26 64 -50 133 -65 188 -79 219
-111 235 -35 19 -63 19 -98 0 -32 -16 -46 -47 -111 -235 -24 -69 -46 -128 -50
-133 -3 -4 -39 93 -78 217 -41 126 -80 230 -91 240 -10 9 -35 16 -59 16 -32 0
-45 -6 -61 -26z" />
        <path
            d="M3150 2610 c-20 -20 -24 -36 -20 -75 4 -42 211 -669 226 -687 25 -26
80 -34 119 -15 36 17 50 47 131 284 l39 111 52 -146 c84 -234 82 -231 113
-247 41 -21 85 -19 115 8 21 18 46 84 130 347 58 179 105 338 105 353 0 40
-15 63 -48 75 -36 12 -76 5 -95 -17 -9 -9 -45 -110 -82 -226 -37 -115 -70
-214 -73 -219 -3 -5 -33 69 -67 164 -72 201 -90 226 -159 217 -26 -4 -49 -15
-62 -30 -11 -13 -47 -99 -79 -191 -32 -91 -61 -164 -63 -161 -3 3 -38 105 -78
227 -43 131 -80 228 -91 235 -27 20 -90 16 -113 -7z" />
        <path
            d="M3547 1676 c-74 -27 -107 -76 -107 -158 0 -29 36 -305 79 -614 81
-585 84 -598 138 -638 29 -21 96 -31 146 -22 53 10 85 51 192 246 l99 182 213
-7 c205 -7 213 -7 257 15 60 28 90 78 90 145 0 34 -6 62 -20 83 -29 46 -946
759 -992 772 -46 12 -48 12 -95 -4z m493 -506 c223 -172 412 -319 420 -327 13
-13 -11 -14 -190 -8 -222 8 -243 4 -293 -43 -15 -15 -69 -103 -120 -195 -70
-129 -93 -165 -99 -150 -4 10 -37 234 -73 498 -36 264 -69 498 -72 520 -5 34
-4 38 8 29 8 -6 196 -152 419 -324z" />
        <path
            d="M290 1223 c-41 -16 -50 -35 -50 -104 0 -137 76 -254 195 -298 56 -21
60 -21 1542 -21 l1485 0 -7 58 c-3 31 -9 67 -12 79 l-5 23 -1457 2 c-1448 3
-1456 3 -1491 24 -50 29 -78 76 -86 144 -4 36 -13 65 -23 74 -20 18 -69 28
-91 19z" />
    </g>
</svg>